# Max2Obj Version 4.0 Mar 10th, 2001
#
# object arbre_tronc to come ...
#
v  -0.75 -0.46 -0.91
v  19.25 0.29 -1.28
v  -10.78 -0.21 -18.82
v  -9.88 2.31 15.82
v  6.04 59.10 0.34
v  -11.86 59.83 -10.47
v  -12.62 61.58 16.03
v  8.39 118.68 5.33
v  -2.34 119.79 -0.45
v  -7.10 120.87 17.91
v  -2.21 119.54 8.48
# 11 vertices

vt  0.50 0.00 0.00
vt  0.75 0.00 1.00
vt  0.08 0.00 1.00
vt  0.42 0.00 1.00
vt  0.75 0.50 1.00
vt  0.08 0.50 1.00
vt  0.42 0.50 1.00
vt  0.75 1.00 1.00
vt  0.08 1.00 1.00
vt  0.42 1.00 1.00
vt  0.50 1.00 0.00
vt  -0.25 0.00 1.00
vt  -0.25 0.00 1.00
vt  -0.25 0.50 1.00
vt  -0.25 0.00 1.00
vt  -0.25 0.50 1.00
vt  -0.25 1.00 1.00
vt  -0.25 0.50 1.00
vt  -0.25 1.00 1.00
# 19 texture vertices

vn  -0.03 -1.00 0.08
vn  0.08 -1.98 0.15
vn  -0.12 -1.98 0.04
vn  -0.12 -1.97 0.26
vn  0.99 0.09 -0.06
vn  -0.43 0.18 -0.88
vn  -0.43 -0.04 0.90
vn  1.73 -0.12 0.67
vn  0.05 0.31 -1.99
vn  -1.32 0.20 0.49
vn  0.15 0.99 -0.02
# 11 vertex normals

g arbre_tronc
s 1
f 1/1/1 3/3/3 2/12/2
f 1/1/1 4/4/4 3/3/3
f 1/1/1 2/2/2 4/4/4
s 8
f 2/13/2 6/6/6 5/14/5
f 2/15/2 3/3/3 6/6/6
f 3/3/3 7/7/7 6/6/6
f 3/3/3 4/4/4 7/7/7
f 4/4/4 5/5/5 7/7/7
f 4/4/4 2/2/2 5/5/5
f 5/16/5 9/9/9 8/17/8
f 5/18/5 6/6/6 9/9/9
f 6/6/6 10/10/10 9/9/9
f 6/6/6 7/7/7 10/10/10
f 7/7/7 8/8/8 10/10/10
f 7/7/7 5/5/5 8/8/8
s 1
f 11/11/11 8/19/8 9/9/9
f 11/11/11 9/9/9 10/10/10
f 11/11/11 10/10/10 8/8/8
# 18 faces

g
# object arbre_feuillage to come ...
#
v  16.19 247.26 -15.84
v  1.11 220.90 -25.87
v  -27.56 212.37 -27.14
v  -34.25 226.45 -6.18
v  -29.65 229.91 18.55
v  -11.94 234.65 38.28
v  13.89 229.02 35.71
v  35.74 218.35 19.84
v  40.10 233.10 -7.58
v  20.97 237.87 -34.67
v  2.81 180.64 -69.74
v  -48.52 174.60 -65.62
v  -83.63 189.85 -24.61
v  -81.51 175.59 25.53
v  -4.64 184.15 79.42
v  48.68 187.66 77.22
v  53.51 181.58 43.29
v  69.91 177.22 -14.04
v  51.70 159.89 -53.22
v  0.74 133.85 -94.27
v  -57.75 127.09 -62.74
v  -86.90 125.95 -15.10
v  -69.17 129.10 40.00
v  -33.81 127.23 82.64
v  26.84 124.52 85.87
v  84.41 125.64 43.83
v  87.74 117.90 -16.23
v  56.23 126.48 -65.65
v  19.36 76.97 -19.01
# 29 vertices

vt  0.00 1.00 0.00
vt  0.11 1.00 0.00
vt  0.22 1.00 0.00
vt  0.33 1.00 0.00
vt  0.44 1.00 0.00
vt  0.56 1.00 0.00
vt  0.67 1.00 0.00
vt  0.78 1.00 0.00
vt  0.89 1.00 0.00
vt  1.00 1.00 0.00
vt  0.00 0.78 0.00
vt  0.11 0.78 0.00
vt  0.22 0.78 0.00
vt  0.33 0.78 0.00
vt  0.44 0.78 0.00
vt  0.56 0.78 0.00
vt  0.67 0.78 0.00
vt  0.78 0.78 0.00
vt  0.89 0.78 0.00
vt  1.00 0.78 0.00
vt  0.00 0.56 0.00
vt  0.11 0.56 0.00
vt  0.22 0.56 0.00
vt  0.33 0.56 0.00
vt  0.44 0.56 0.00
vt  0.56 0.56 0.00
vt  0.67 0.56 0.00
vt  0.78 0.56 0.00
vt  0.89 0.56 0.00
vt  1.00 0.56 0.00
vt  0.00 0.33 0.00
vt  0.11 0.33 0.00
vt  0.22 0.33 0.00
vt  0.33 0.33 0.00
vt  0.44 0.33 0.00
vt  0.56 0.33 0.00
vt  0.67 0.33 0.00
vt  0.78 0.33 0.00
vt  0.89 0.33 0.00
vt  1.00 0.33 0.00
vt  0.00 0.11 0.00
vt  0.11 0.11 0.00
vt  0.22 0.11 0.00
vt  0.33 0.11 0.00
vt  0.44 0.11 0.00
vt  0.56 0.11 0.00
vt  0.67 0.11 0.00
vt  0.78 0.11 0.00
vt  0.89 0.11 0.00
vt  1.00 0.11 0.00
# 50 texture vertices

vn  -0.03 0.99 -0.16
vn  -0.38 0.63 -0.68
vn  -0.27 0.68 -0.68
vn  -0.53 0.82 -0.21
vn  -0.58 0.76 0.27
vn  -0.14 0.83 0.53
vn  0.52 0.78 0.35
vn  0.67 0.65 0.37
vn  0.74 0.66 -0.10
vn  0.11 0.72 -0.68
vn  -0.09 0.46 -0.88
vn  -0.45 0.44 -0.78
vn  -0.86 0.43 -0.28
vn  -0.81 0.40 0.44
vn  -0.33 0.38 0.86
vn  0.52 0.54 0.67
vn  0.84 0.52 0.16
vn  0.90 0.40 -0.13
vn  0.62 0.39 -0.68
vn  0.13 -0.10 -0.99
vn  -0.52 -0.30 -0.80
vn  -0.88 -0.41 -0.24
vn  -0.82 -0.47 0.32
vn  -0.47 -0.37 0.80
vn  0.20 -0.41 0.89
vn  0.89 -0.24 0.38
vn  0.98 -0.16 -0.15
vn  0.69 -0.14 -0.71
vn  0.01 -1.00 -0.07
# 29 vertex normals

g arbre_feuillage
s 1
f 12/20/12 13/30/13 14/31/14
f 12/21/12 14/31/14 15/32/15
f 12/22/12 15/32/15 16/33/16
f 12/23/12 16/33/16 17/34/17
f 12/24/12 17/34/17 18/35/18
f 12/25/12 18/35/18 19/36/19
f 12/26/12 19/36/19 20/37/20
f 12/27/12 20/37/20 21/38/21
f 12/28/12 21/38/21 13/39/13
f 13/30/13 22/40/22 23/41/23
f 13/30/13 23/41/23 14/31/14
f 14/31/14 23/41/23 24/42/24
f 14/31/14 24/42/24 15/32/15
f 15/32/15 24/42/24 25/43/25
f 15/32/15 25/43/25 16/33/16
f 16/33/16 25/43/25 26/44/26
f 16/33/16 26/44/26 17/34/17
f 17/34/17 26/44/26 27/45/27
f 17/34/17 27/45/27 18/35/18
f 18/35/18 27/45/27 28/46/28
f 18/35/18 28/46/28 19/36/19
f 19/36/19 28/46/28 29/47/29
f 19/36/19 29/47/29 20/37/20
f 20/37/20 29/47/29 30/48/30
f 20/37/20 30/48/30 21/38/21
f 21/38/21 30/48/30 22/49/22
f 21/38/21 22/49/22 13/39/13
f 22/40/22 31/50/31 32/51/32
f 22/40/22 32/51/32 23/41/23
f 23/41/23 32/51/32 33/52/33
f 23/41/23 33/52/33 24/42/24
f 24/42/24 33/52/33 34/53/34
f 24/42/24 34/53/34 25/43/25
f 25/43/25 34/53/34 35/54/35
f 25/43/25 35/54/35 26/44/26
f 26/44/26 35/54/35 36/55/36
f 26/44/26 36/55/36 27/45/27
f 27/45/27 36/55/36 37/56/37
f 27/45/27 37/56/37 28/46/28
f 28/46/28 37/56/37 38/57/38
f 28/46/28 38/57/38 29/47/29
f 29/47/29 38/57/38 39/58/39
f 29/47/29 39/58/39 30/48/30
f 30/48/30 39/58/39 31/59/31
f 30/48/30 31/59/31 22/49/22
f 40/60/40 32/51/32 31/50/31
f 40/61/40 33/52/33 32/51/32
f 40/62/40 34/53/34 33/52/33
f 40/63/40 35/54/35 34/53/34
f 40/64/40 36/55/36 35/54/35
f 40/65/40 37/56/37 36/55/36
f 40/66/40 38/57/38 37/56/37
f 40/67/40 39/58/39 38/57/38
f 40/68/40 31/59/31 39/58/39
# 54 faces

g
# object sol to come ...
#
v  -199.81 -11.61 199.72
v  -99.81 3.93 199.72
v  0.19 20.58 199.72
v  100.19 -2.52 199.72
v  200.19 -2.83 199.72
v  -199.81 9.38 99.72
v  -99.81 10.76 99.72
v  0.19 12.70 99.72
v  100.19 10.24 99.72
v  200.19 26.10 99.72
v  -199.81 -1.02 -0.28
v  -99.81 -9.66 -0.28
v  0.19 7.17 -0.28
v  100.19 13.51 -0.28
v  200.19 0.40 -0.28
v  -199.81 8.20 -100.28
v  -99.81 21.34 -100.28
v  0.19 1.37 -100.28
v  100.19 8.77 -100.28
v  200.19 4.93 -100.28
v  -199.81 -5.57 -200.28
v  -99.81 13.46 -200.28
v  0.19 2.12 -200.28
v  100.19 17.44 -200.28
v  200.19 20.36 -200.28
# 25 vertices

vt  0.00 0.00 0.00
vt  0.25 0.00 0.00
vt  0.50 0.00 0.00
vt  0.75 0.00 0.00
vt  1.00 0.00 0.00
vt  0.00 0.00 0.00
vt  0.25 0.00 0.00
vt  0.50 0.00 0.00
vt  0.75 0.00 0.00
vt  1.00 0.00 0.00
vt  0.00 0.00 0.00
vt  0.25 0.00 0.00
vt  0.50 0.00 0.00
vt  0.75 0.00 0.00
vt  1.00 0.00 0.00
vt  0.00 0.25 0.00
vt  0.25 0.25 0.00
vt  0.50 0.25 0.00
vt  0.75 0.25 0.00
vt  1.00 0.25 0.00
vt  0.00 0.50 0.00
vt  0.25 0.50 0.00
vt  0.50 0.50 0.00
vt  0.75 0.50 0.00
vt  1.00 0.50 0.00
vt  0.00 0.75 0.00
vt  0.25 0.75 0.00
vt  0.50 0.75 0.00
vt  0.75 0.75 0.00
vt  1.00 0.75 0.00
vt  0.00 1.00 0.00
vt  0.25 1.00 0.00
vt  0.50 1.00 0.00
vt  0.75 1.00 0.00
vt  1.00 1.00 0.00
# 35 texture vertices

vn  -0.08 0.99 0.14
vn  -0.11 0.99 0.02
vn  0.03 1.00 -0.01
vn  0.02 0.98 0.18
vn  0.00 0.96 0.28
vn  0.02 1.00 -0.03
vn  -0.06 1.00 -0.02
vn  -0.04 1.00 -0.03
vn  0.02 1.00 -0.00
vn  -0.10 0.99 0.05
vn  0.01 1.00 0.10
vn  0.00 1.00 0.00
vn  -0.09 0.99 -0.08
vn  0.03 1.00 -0.01
vn  0.04 1.00 -0.06
vn  -0.15 0.99 -0.04
vn  0.05 0.99 0.09
vn  -0.01 1.00 0.05
vn  -0.03 1.00 0.03
vn  0.07 1.00 0.05
vn  -0.19 0.97 -0.13
vn  -0.07 0.99 -0.10
vn  0.05 1.00 -0.02
vn  -0.08 0.99 0.06
vn  0.00 0.99 0.12
# 25 vertex normals

g sol
s 1
f 46/85/46 41/80/41 47/86/47
f 42/81/42 47/86/47 41/80/41
f 47/86/47 42/81/42 48/87/48
f 43/82/43 48/87/48 42/81/42
f 48/87/48 43/82/43 49/88/49
f 44/83/44 49/88/49 43/82/43
f 49/88/49 44/83/44 50/89/50
f 45/84/45 50/89/50 44/83/44
f 51/90/51 46/85/46 52/91/52
f 47/86/47 52/91/52 46/85/46
f 52/91/52 47/86/47 53/92/53
f 48/87/48 53/92/53 47/86/47
f 53/92/53 48/87/48 54/93/54
f 49/88/49 54/93/54 48/87/48
f 54/93/54 49/88/49 55/94/55
f 50/89/50 55/94/55 49/88/49
f 56/95/56 51/90/51 57/96/57
f 52/91/52 57/96/57 51/90/51
f 57/96/57 52/91/52 58/97/58
f 53/92/53 58/97/58 52/91/52
f 58/97/58 53/92/53 59/98/59
f 54/93/54 59/98/59 53/92/53
f 59/98/59 54/93/54 60/99/60
f 55/94/55 60/99/60 54/93/54
f 61/100/61 56/95/56 62/101/62
f 57/96/57 62/101/62 56/95/56
f 62/101/62 57/96/57 63/102/63
f 58/97/58 63/102/63 57/96/57
f 63/102/63 58/97/58 64/103/64
f 59/98/59 64/103/64 58/97/58
f 64/103/64 59/98/59 65/104/65
f 60/99/60 65/104/65 59/98/59
# 32 faces

g
